<?xml version="1.0" standalone="no"?>
<!DOCTYPE svg PUBLIC "-//W3C//DTD SVG 20010904//EN"
 "http://www.w3.org/TR/2001/REC-SVG-20010904/DTD/svg10.dtd">
<svg version="1.0" xmlns="http://www.w3.org/2000/svg"
 width="512.000000pt" height="512.000000pt" viewBox="0 0 512.000000 512.000000"
 preserveAspectRatio="xMidYMid meet">

<g transform="translate(0.000000,512.000000) scale(0.100000,-0.100000)"
fill="#000000" stroke="none">
<path d="M133 4859 c-48 -23 -88 -66 -112 -119 -14 -32 -16 -167 -16 -1360 0
-1447 -3 -1367 58 -1437 68 -78 -11 -73 1135 -73 1009 0 1022 0 1022 20 0 17
36 138 55 183 7 16 -34 17 -783 17 l-791 0 -6 37 c-19 128 -57 212 -131 287
-81 83 -164 124 -286 141 l-48 7 0 813 0 812 75 12 c99 16 185 60 254 131 79
80 117 161 136 293 l6 37 1859 0 1859 0 6 -37 c19 -132 57 -213 136 -293 69
-71 155 -115 254 -131 l75 -12 0 -813 c0 -448 -2 -814 -5 -814 -3 0 -38 24
-78 54 -153 115 -292 166 -477 172 l-125 5 75 -21 c220 -58 407 -208 514 -409
68 -130 90 -220 90 -373 l1 -128 35 6 c50 9 89 31 132 72 73 69 69 -22 66
1448 l-3 1319 -23 47 c-26 52 -69 93 -119 115 -27 11 -439 13 -2415 13 l-2383
0 -42 -21z"/>
<path d="M2395 4403 c-299 -64 -555 -287 -681 -596 -147 -363 -94 -800 136
-1105 130 -173 313 -300 501 -346 93 -23 103 -21 162 27 149 121 313 176 523
177 l111 0 45 48 c203 217 310 512 295 816 -15 289 -118 535 -307 726 -215
217 -510 312 -785 253z m238 -353 c14 -11 31 -36 37 -55 l12 -35 64 0 c36 0
80 -6 99 -14 58 -25 82 -104 50 -166 -26 -51 -43 -55 -282 -60 -217 -5 -222
-5 -247 -29 -49 -46 -42 -141 12 -177 23 -15 58 -19 212 -24 211 -7 243 -16
325 -91 143 -132 148 -367 10 -504 -51 -52 -127 -90 -196 -100 -42 -6 -48 -10
-62 -45 -18 -47 -56 -73 -107 -73 -51 0 -89 26 -108 74 l-15 39 -64 0 c-35 0
-79 6 -98 14 -78 33 -88 154 -16 203 22 15 58 19 248 23 217 5 222 5 247 29
49 46 43 141 -12 177 -23 15 -57 19 -212 24 -214 6 -250 17 -332 97 -69 68
-102 148 -101 248 0 105 28 178 92 244 57 59 106 85 188 101 58 12 63 15 73
46 17 49 53 74 110 74 32 0 55 -6 73 -20z"/>
<path d="M1120 3601 c-171 -35 -245 -240 -133 -370 92 -109 250 -115 345 -14
82 86 78 244 -8 325 -51 47 -137 72 -204 59z"/>
<path d="M3907 3599 c-111 -26 -178 -110 -178 -224 0 -132 95 -228 226 -228
74 0 128 25 178 84 139 162 -16 416 -226 368z"/>
<path d="M3200 2551 c0 -5 16 -12 35 -15 19 -4 68 -20 108 -37 l72 -29 22 27
c28 34 21 39 -73 53 -86 12 -164 13 -164 1z"/>
</g>
</svg>
